<svg xmlns="http://www.w3.org/2000/svg" fill="none" viewBox="-0.5 -0.5 24 24" 
id="Hls--Streamline-Outlined-Material-Symbols.svg" height="24" width="24">
<desc>Hls Streamline Icon: https://streamlinehq.com</desc><path 
fill="#FFFFFF" 
d="M2.875 14.375V8.625h1.15v2.1322916666666667h2.347916666666667V8.625h1.15v5.75h-1.15v-2.4677083333333334H4.025V14.375H2.875Zm6.612500000000001 0V8.625h1.15v4.6h2.875V14.375h-4.025Zm6.18125 0c-0.23958333333333334 0 -0.4352270833333334 -0.07585208333333333 -0.5869791666666667 -0.22760416666666666C14.93001875 13.995643750000001 14.854166666666668 13.8 14.854166666666668 13.560416666666667V12.458333333333334h1.15v0.7666666666666667h2.4916666666666667v-1.2697916666666667h-2.8270833333333334c-0.22362708333333334 0 -0.41529375 -0.07987708333333333 -0.575 -0.23958333333333334 -0.15970625 -0.15970625 -0.23958333333333334 -0.35137291666666665 -0.23958333333333334 -0.575V9.439583333333333c0 -0.23958333333333334 0.07585208333333333 -0.4352270833333334 0.22760416666666666 -0.5869791666666667 0.15175208333333334 -0.15175208333333334 0.34739583333333335 -0.22760416666666666 0.5869791666666667 -0.22760416666666666h3.1625c0.23958333333333334 0 0.4352270833333334 0.07585208333333333 0.5869791666666667 0.22760416666666666 0.15175208333333334 0.15175208333333334 0.22760416666666666 0.34739583333333335 0.22760416666666666 0.5869791666666667V10.541666666666668h-1.15v-0.7666666666666667h-2.4916666666666667v1.2697916666666667h2.8270833333333334c0.22362708333333334 0 0.41529375 0.07987708333333333 0.575 0.23958333333333334 0.15970625 0.15970625 0.23958333333333334 0.35137291666666665 0.23958333333333334 0.575v1.7010416666666666c0 0.23958333333333334 -0.07585208333333333 0.4352270833333334 -0.22760416666666666 0.5869791666666667 -0.15175208333333334 0.15175208333333334 -0.34739583333333335 0.22760416666666666 -0.5869791666666667 0.22760416666666666h-3.1625Z" 
stroke-width="1"></path></svg>