<svg xmlns:inkscape="http://www.inkscape.org/namespaces/inkscape" xmlns:sodipodi="http://sodipodi.sourceforge.net/DTD/sodipodi-0.dtd" xmlns="http://www.w3.org/2000/svg" xmlns:svg="http://www.w3.org/2000/svg" fill="#fcaf17" id="Capa_1" width="625.41016" height="162.87901" viewBox="0 0 161.52639 647.83499" xml:space="preserve" stroke="#fcaf17" stroke-width="0.0054774" sodipodi:docname="applogo2.svg" inkscape:version="1.4.2 (ebf0e940, 2025-05-08)"><defs id="defs5"></defs><g id="SVGRepo_bgCarrier" stroke-width="0" transform="translate(-6.1907694,-5.0600344)"></g><g id="SVGRepo_tracerCarrier" stroke-linecap="round" stroke-linejoin="round" stroke="#ffffff" stroke-width="100.095" transform="translate(-1109.18,50.047501)"> <g id="g3"> <g id="g2"> <path d="m 273.87,345.132 c 39.293,0 71.262,-31.969 71.262,-71.262 0,-39.293 -31.969,-71.261 -71.262,-71.261 -39.293,0 -71.261,31.968 -71.261,71.261 0,39.293 31.968,71.262 71.261,71.262 z m 0,-116.397 c 24.927,0 45.135,20.208 45.135,45.135 0,24.927 -20.208,45.135 -45.135,45.135 -24.927,0 -45.135,-20.208 -45.135,-45.135 0,-24.927 20.208,-45.135 45.135,-45.135 z" id="path1"></path> <path d="m 273.87,547.74 c 151.256,0 273.87,-122.617 273.87,-273.87 C 547.74,122.617 425.126,0 273.87,0 122.614,0 0,122.617 0,273.87 0,425.123 122.614,547.74 273.87,547.74 Z m 0,-500.31 c 124.86,0 226.44,101.58 226.44,226.44 h -15.3 C 485.01,157.446 390.294,62.73 273.87,62.73 Z m 0,68.621 c 87.023,0 157.822,70.799 157.822,157.819 h -15.3 c 0,-78.587 -63.936,-142.52 -142.522,-142.52 z m 0,71.258 c 47.729,0 86.562,38.832 86.562,86.562 0,47.729 -38.832,86.562 -86.562,86.562 -47.73,0 -86.562,-38.832 -86.562,-86.562 0.001,-47.731 38.832,-86.562 86.562,-86.562 z" id="path2"></path> </g> </g> </g><g id="SVGRepo_iconCarrier" transform="translate(-1109.18,50.047501)"> <g id="g5"> <g id="g4"> <path d="m 273.87,345.132 c 39.293,0 71.262,-31.969 71.262,-71.262 0,-39.293 -31.969,-71.261 -71.262,-71.261 -39.293,0 -71.261,31.968 -71.261,71.261 0,39.293 31.968,71.262 71.261,71.262 z m 0,-116.397 c 24.927,0 45.135,20.208 45.135,45.135 0,24.927 -20.208,45.135 -45.135,45.135 -24.927,0 -45.135,-20.208 -45.135,-45.135 0,-24.927 20.208,-45.135 45.135,-45.135 z" id="path3"></path> <path d="m 273.87,547.74 c 151.256,0 273.87,-122.617 273.87,-273.87 C 547.74,122.617 425.126,0 273.87,0 122.614,0 0,122.617 0,273.87 0,425.123 122.614,547.74 273.87,547.74 Z m 0,-500.31 c 124.86,0 226.44,101.58 226.44,226.44 h -15.3 C 485.01,157.446 390.294,62.73 273.87,62.73 Z m 0,68.621 c 87.023,0 157.822,70.799 157.822,157.819 h -15.3 c 0,-78.587 -63.936,-142.52 -142.522,-142.52 z m 0,71.258 c 47.729,0 86.562,38.832 86.562,86.562 0,47.729 -38.832,86.562 -86.562,86.562 -47.73,0 -86.562,-38.832 -86.562,-86.562 0.001,-47.731 38.832,-86.562 86.562,-86.562 z" id="path4"></path> </g> </g> </g><g inkscape:groupmode="layer" id="layer1" inkscape:label="Layer 1" transform="translate(-6.1907694,-5.0600344)"></g><path style="font-size:298.305px;font-family:'.Al Tarikh PUA';-inkscape-font-specification:'.Al Tarikh PUA';stroke:#ffffff;stroke-width:34.743;stroke-linecap:square;stroke-dasharray:none;stroke-opacity:1;paint-order:markers stroke fill" d="m -277.6813,373.64992 h -37.0255 l -71.74586,-50.00813 h -40.19498 v 50.00813 h -28.52547 v -125.7806 h 60.07638 q 19.44917,0 32.41528,1.52051 12.96614,1.43605 23.33903,5.23735 11.66951,4.30812 18.15256,10.89704 6.62713,6.50443 6.62713,16.55675 0,13.60018 -11.66951,22.80776 -11.6695,9.12311 -32.12716,13.76912 z m -66.70349,-90.38633 q 0,-5.40628 -3.31357,-9.54548 -3.16951,-4.22366 -10.66104,-7.09574 -6.19493,-2.44973 -14.69492,-3.37894 -8.50003,-1.01367 -20.02546,-1.01367 h -33.56786 v 47.47394 h 28.8136 q 13.54239,0 23.62716,-1.35157 10.08476,-1.43604 17.1441,-5.23734 6.48306,-3.54787 9.50849,-8.10943 3.1695,-4.64601 3.1695,-11.74177 z m 263.500395,90.38633 h -30.398355 l -21.03393,-35.05638 h -92.77979 l -21.03395,35.05638 h -28.95766 l 78.08486,-125.7806 h 38.03396 z m -60.220435,-49.41682 -37.60174,-61.74992 -37.74583,61.74992 z m 274.01738,-13.34678 q 0,17.14807 -12.82205,31.08615 -12.678,13.93807 -33.855996,21.62513 -14.694929,5.32181 -32.847501,7.68706 -18.008502,2.36526 -47.5424466,2.36526 H -48.325019 V 247.86932 H 5.2682844 q 31.4068276,0 49.8475346,2.70314 18.584775,2.61866 31.406829,7.26469 21.898342,8.02496 34.144112,21.37173 12.24579,13.34676 12.24579,31.67744 z m -29.82207,-0.25341 q 0,-14.78282 -8.788161,-24.9196 Q 85.514172,275.57653 68.08194,269.74787 55.403956,265.52422 41.14122,263.91922 26.878487,262.22976 6.9971004,262.22976 H -19.799551 v 97.05971 H 6.9971004 q 20.6017276,0 35.8729366,-1.77393 15.415279,-1.77395 28.237333,-6.58892 15.991537,-5.99759 23.915291,-15.79649 8.067819,-9.79889 8.067819,-24.49722 z m 151.55956,63.01701 h -84.712 v -12.83993 h 28.09328 V 260.70924 h -28.09328 v -12.83992 h 84.712 v 12.83992 h -28.09326 v 100.10075 h 28.09326 z m 208.4664,-111.33569 q 13.1102,8.44732 20.02546,20.69594 7.05934,12.24862 7.05934,27.79168 0,15.54307 -7.20341,27.87616 -7.05934,12.24861 -19.88139,20.44252 -13.25424,8.53179 -31.40683,12.83992 -18.00849,4.30813 -41.20344,4.30813 -22.61867,0 -41.20346,-4.3926 -18.44071,-4.39261 -31.40682,-12.75545 -12.96612,-8.36285 -20.02546,-20.52699 -6.91526,-12.16415 -6.91526,-27.79169 0,-15.37412 6.91526,-27.53826 6.91526,-12.24862 20.16952,-20.94936 12.678,-8.27837 31.40683,-12.67098 18.8729,-4.3926 41.05939,-4.3926 23.05089,0 41.34752,4.47708 18.4407,4.3926 31.26275,12.5865 z m -2.59323,48.48762 q 0,-24.49723 -18.72883,-37.75952 -18.72884,-13.34677 -51.14415,-13.34677 -32.70343,0 -51.43229,13.34677 -18.58476,13.26229 -18.58476,37.75952 0,24.75065 19.01698,37.92847 19.01697,13.09335 51.00007,13.09335 31.98311,0 50.85601,-13.09335 19.01697,-13.17782 19.01697,-37.92847 z m 210.62744,62.84807 H 535.43858 v -125.7806 h 28.52547 v 110.91331 h 107.1866 z m 164.2375,0 H 699.67609 v -125.7806 h 28.52546 v 110.91331 h 107.1866 z m 169.85625,0 H 863.91367 V 247.86932 H 1005.2444 V 262.7366 H 892.43913 v 34.46507 h 112.80527 v 14.86728 H 892.43913 v 46.71368 h 112.80527 z m 222.7293,0 h -37.0256 l -71.7459,-50.00813 h -40.195 v 50.00813 h -28.5255 v -125.7806 h 60.0765 q 19.4491,0 32.4152,1.52051 12.9662,1.43605 23.3392,5.23735 11.6693,4.30812 18.1524,10.89704 6.6272,6.50443 6.6272,16.55675 0,13.60018 -11.6694,22.80776 -11.6697,9.12311 -32.1273,13.76912 z m -66.7036,-90.38633 q 0,-5.40628 -3.3136,-9.54548 -3.1694,-4.22366 -10.661,-7.09574 -6.1949,-2.44973 -14.695,-3.37894 -8.5,-1.01367 -20.0255,-1.01367 h -33.5678 v 47.47394 h 28.8136 q 13.5425,0 23.6272,-1.35157 10.0847,-1.43604 17.144,-5.23734 6.4832,-3.54787 9.5086,-8.10943 3.1695,-4.64601 3.1695,-11.74177 z" id="text5-1" aria-label="RADIOLLER"></path></svg>