<svg xmlns="http://www.w3.org/2000/svg" xmlns:xlink="http://www.w3.org/1999/xlink" width="591.2969" height="515.95745" viewBox="0 0 591.2969 515.95745"><metadata></metadata><path d="M189.16786,81.63183c0-42.53176,34.47888-77.01064,77.01064-77.01064,42.53176,0,77.01093,34.47888,77.01093,77.01064,0,34.49355-22.67938,63.68643-53.93849,73.49047l-2.57353,148.20849-117.7078-116.17913s45.89484-17.77001,54.68749-41.31778c-20.78148-13.79121-34.48924-37.39135-34.48924-64.20205Z" fill="#a0616a"></path><path d="M224.00182,145.8775s-26.27551-9.35755-39.74549-36.68815c-12.37238-25.10356-13.7291-67.86813,21.40022-78.254,0,0-20.23937-17.4743,17.07479-28.11973l-4.96349,4.57935s4.37986-7.90997,26.00916-3.2323c0,0,79.92402-9.30903,94.10986,17.00654,0,0,42.89594,8.79091,20.05295,41.42187,0,0-1.18095,6.34998-9.33157,6.23012l4.0723-5.32603-12.41114,5.32603s-17.26189-27.49479-33.55394-12.29186c0,0-31.15897-1.31096-46.06221-4.04116,0,0,2.99149,40.02541-25.61218,47.82037-28.60367,7.79496-11.03924,45.56894-11.03924,45.56894Z" fill="#090814"></path><path d="M488.23876,404.5283l-140.75612,83.96518-11.70493-54.55213,133.36671-63.36649c2.52621-9.58719,9.51099-18.7561,19.87079-24.58213,18.12699-10.19402,39.66067-6.29671,48.09714,8.70493,8.43642,15.00166.58082,35.42654-17.54622,45.62059-10.35986,5.82606-21.82305,7.0313-31.32738,4.21006Z" fill="#a0616a"></path><path d="M500.18476,400.20595h-28.66933c-4.9234,0-9.25638-3.49176-10.30324-8.30171h0c-.7927-3.64403.41912-7.47617,3.16259-10.00057l87.42209-80.46282c1.36147-1.251,3.13348-1.90487,4.97901-1.84366l27.75384.95691c2.80319.09703,5.19696,1.7735,6.24643,4.37553,1.0491,2.60054.48891,5.46829-1.46261,7.48363l-82.18221,84.85029c-1.81119,1.87053-4.34306,2.9424-6.94658,2.9424Z" fill="#090814"></path><path d="M266.62027,2.55291s-19.64868-5.74404-26.54755,0c-6.89887,5.74404-21.06171,68.5741-21.06171,68.5741l19.70289,4.75587L266.62027,2.55291Z" fill="#6c63ff"></path><circle cx="223.23748" cy="102.31033" r="32.10213" fill="#6c63ff"></circle><path d="M223.23748,126.00475c-13.065,0-23.69443-10.62905-23.69443-23.69443s10.62943-23.69443,23.69443-23.69443,23.69443,10.62905,23.69443,23.69443-10.62943,23.69443-23.69443,23.69443ZM223.23748,80.14457c-12.22229,0-22.16575,9.94384-22.16575,22.16575s9.94346,22.16575,22.16575,22.16575,22.16575-9.94384,22.16575-22.16575-9.94346-22.16575-22.16575-22.16575Z" fill="#090814"></path><path d="M223.23748,119.89006c-9.69341,0-17.57974-7.8867-17.57974-17.57974s7.88632-17.57974,17.57974-17.57974,17.57974,7.8867,17.57974,17.57974-7.88632,17.57974-17.57974,17.57974ZM223.23748,86.25926c-8.8507,0-16.05106,7.19999-16.05106,16.05106s7.20036,16.05106,16.05106,16.05106,16.05106-7.19999,16.05106-16.05106-7.20036-16.05106-16.05106-16.05106Z" fill="#090814"></path><path d="M194.98316,167.61779c32.44175,32.59775,63.24977,41.34881,91.59627,14.16933l40.0346,293.35805-16.64555,24.11906-101.23211.28843-13.75322-331.93487Z" fill="#d6d6e3"></path><path d="M189.65556,164.66931l-16.92792,13.91336-51.39161,29.33183c-22.22736,8.26243-39.37035,26.34447-46.43141,48.98215-6.37989,20.45382-13.43978,48.35161-17.40205,80.88279-8.44741,69.35519-2.31288,160.80539-2.31288,160.80539l78.13216.67941-3.39705-45.86018-12.56909-113.46149.33348,159.6101h91.04717s6.23083-270.7098-7.34669-330.91313c-1.18904-5.27224-7.55881-7.40199-11.73413-3.97023Z" fill="#090814"></path><path d="M286.57939,181.7871l61.56204,29.60223c21.11326,10.15235,36.27749,29.57811,41.00168,52.52418l25.79423,125.28628,8.42992,75.78623s-36.26589,32.47938-60.06508,21.70912l1.69853,12.56909h-55.03222l-23.3891-317.47713Z" fill="#090814"></path><path d="M376.89038,410.26151l72.35718-40.0852,20.72201,57.41015s-41.59403,51.53486-106.66739,59.10868l13.5882-76.43364Z" fill="#090814"></path><path d="M498.58779,392.99103c-.15302,0-.30678-.01194-.45942-.03284l-27.44632-3.84258c-1.27974-.17914-2.32212-1.05395-2.72034-2.28256-.39822-1.2301-.0668-2.54978.8651-3.44549l82.01053-78.79382c.64118-.61804,1.51934-.93004,2.4143-.93303l28.91864.83002c1.36483.03881,2.52216.85241,3.02077,2.12432.49824,1.2719.20191,2.65577-.77404,3.61268l-83.48136,81.80788c-.62737.61356-1.47978.95393-2.34787.95542Z" fill="#6c63ff"></path><path d="M544.95492,327.05128c6.36415,4.78571.76748,18.19385-9.75454,23.36693-10.49111,5.15789-17.48442-2.00495-12.21699-12.51314,4.72718-9.43042,16.27659-15.13627,21.97153-10.85379Z" fill="#fff"></path><path d="M538.41807,330.47208c.17674.10948.22268.55022.26423.78391.08659.48693.65438,9.77927.63086,10.32133-.05917,1.36374-.64292,2.08689-2.08318,2.16079-.53397.0274-9.51233-.4845-10.18622-.57972-1.08884-.15386-1.58993-.60026-.36278-2.04935,1.00279-1.18415,8.31057-8.21664,10.24134-10.24786.44742-.40725,1.17674-.5867,1.49574-.3891Z" fill="#6c63ff"></path><path d="M377.1092,505.39321c-14.56197-24.65406-25.52734-51.34909-32.67383-79.07143-7.10878-27.57606-10.43315-56.10516-9.79991-84.57762.35639-16.02456,1.97318-32.00975,4.87462-47.77385.34738-1.88736-2.5433-2.69663-2.89284-.79752-2.61283,14.19606-4.2244,28.57489-4.80723,42.99785-.58319,14.43159-.14734,28.90399,1.28391,43.276,1.4236,14.29523,3.80663,28.49683,7.15428,42.46758,3.36575,14.04627,7.70184,27.86069,12.98475,41.30409,5.27737,13.42932,11.47475,26.49757,18.59644,39.04778.8825,1.55518,1.78003,3.10168,2.6894,4.64129.98116,1.66115,3.57545.15356,2.59041-1.51416h0Z" fill="#fff"></path><path d="M428.44788,374.34035c-7.64961,13.4241-21.13341,23.03041-36.29684,25.95085-1.89378.36474-1.09196,3.25675.79752,2.89284,15.88353-3.05914,30.08552-13.28315,38.08973-27.32953.95733-1.68-1.63361-3.19322-2.59041-1.51416h0Z" fill="#fff"></path><path d="M133.68812,514.51903c-1.51285-17.65458-.43592-35.61845.98703-53.24069,1.63335-20.22788,4.14321-40.46106,8.19324-60.35574,1.79375-8.81133,3.85663-17.6392,6.91055-26.10977.65593-1.81934-2.24191-2.60298-2.89284-.79752-2.70335,7.49819-4.61126,15.28009-6.2757,23.06613-2.03897,9.53806-3.64827,19.1673-5.0143,28.82326-2.8688,20.27839-4.78369,40.74379-5.37963,61.21973-.2655,9.12237-.30816,18.29439.47165,27.39461.1636,1.90921,3.16509,1.92656,3,0h0Z" fill="#fff"></path><path d="M233.05745,477.0892l-111.4767,12.73966,10.70071-42.80284,98.85283-8.84352c6.54145-7.45018,16.8855-12.53516,28.75663-13.12196,20.77141-1.02672,38.2986,12.07619,39.14834,29.26633.84967,17.19014-15.29982,31.95767-36.07129,32.98438-11.8712.5868-22.66622-3.45362-29.91051-10.22206Z" fill="#a0616a"></path><path d="M130.86706,432.49708l82.64223-3.55601-7.09492,60.62169s-60.22934,27.53784-121.83652,5.25647l46.2892-62.32215Z" fill="#090814"></path><path d="M286.98651,183.24116l39.63838,290.45528,3.45351-5.00401-40.03454-293.35812c-25.8988,24.83272-53.85231,19.67196-83.22934-6.26621-3.06285-2.70429-7.82129-.52772-7.87494,3.47086,31.14008,29.71208,60.73628,36.88819,88.04694,10.7022Z" fill="#090814"></path><path d="M470.01121,504.61448H2.35977c-1.40626-.10748-2.44528-1.33012-2.35422-2.73638-.09106-1.39133.94796-2.61397,2.35422-2.72146h467.65144c1.23906.15227,2.21687,1.13158,2.36914,2.36914.19855,1.51374-.8554,2.88865-2.36914,3.0887Z" fill="#ccc"></path></svg>